<svg id="Layer_1" data-name="Layer 1" xmlns="http://www.w3.org/2000/svg" viewBox="0 0 232.56 153.29"><defs><style>.cls-1{fill:#282e3d;}</style></defs><path class="cls-1" d="M344,409.87s58.44,2.64,64.67-35c6-36.21-71.46-29.38-97-27.4-63.11,4.9-130.07-11.4-130.07-11.4l-1.9,56.48s47.18-9.67,63.49-11.4c14.81-1.57,60.33-2.29,60.33-2.29l-6.83,61h20.54l-2.66-62.76,7.68,49.24c2.13,13.67-5.78,26.16-15,23.71l-33.81-9-.38,48.31s8-8,11.43-9.15c31.73-10.19,123.78,25.45,127.72-34C414.86,406,344,409.87,344,409.87Zm.66-17.95.87-25.14s23.65-.09,23.63,5.85C369.15,381.25,344.67,391.92,344.67,391.92Zm24.91,62.25c-7.48,4.24-27.74,3.63-27.74,3.63L346,426.34C384.74,429.39,376.31,450.35,369.58,454.17Z" transform="translate(-179.71 -336.06)"/></svg>